# xmcd
#
# Track frame offsets: 
#        150
#        16597
#        39495
#        54385
#        73525
#        90627
#        101667
#        113787
#        126265
#        140015
#        160035
#        175740
#        190765
#        213042
#        227642
#        239305
#
# Disc length: 3513 seconds
#
# Revision: 3
# Processed by: cddbd v1.5.2PL0 Copyright (c) Steve Scherf et al.
# Submitted via: ExactAudioCopyFreeDBPlugin 1.0
#
DISCID=ca0db710
DTITLE=Various Artist - Back to the Blues (MusicSpace.com)
DYEAR=2003
DGENRE=Blues
TTITLE0=Stevie Ray Vaughan - Pride and Joy
TTITLE1=Roy Buchanan - John's Blues
TTITLE2=TAJ Mahal - Stagger Lee
TTITLE3=Allman Brothers Band - Statesboro Blues
TTITLE4=Koko Taylor - Voodoo Woman
TTITLE5=Paul Butterfield Blues Band - Shake Your Money Maker
TTITLE6=Bobby Bland - I Pity the Fool
TTITLE7=Albert King - Born Under a Bad Sign
TTITLE8=Albert Collins - Frosty
TTITLE9=Johnny Winter - Mean Town Blues
TTITLE10=Robert Cray - Phone Booth
TTITLE11=James Cotton - Boogie Thing
TTITLE12=Son Seals - On My Knees
TTITLE13=Otis Rush - I Can't Quit You Baby
TTITLE14=Freddie King - Hide Away
TTITLE15=B.B. King - The Thrill is Gone
EXTD=
EXTT0=
EXTT1=
EXTT2=
EXTT3=
EXTT4=
EXTT5=
EXTT6=
EXTT7=
EXTT8=
EXTT9=
EXTT10=
EXTT11=
EXTT12=
EXTT13=
EXTT14=
EXTT15=
PLAYORDER=
